<svg xmlns="http://www.w3.org/2000/svg" viewBox="0 0 840 840">
  <defs>
    <pattern id="checker" width="40" height="40" patternUnits="userSpaceOnUse">
      <rect width="40" height="40" fill="#f5f5f5"/>
      <rect width="20" height="20" fill="#e7e7e7"/>
      <rect x="20" y="20" width="20" height="20" fill="#e7e7e7"/>
    </pattern>
    <linearGradient id="fur" x1="0" x2="1" y1="0" y2="1">
      <stop offset="0" stop-color="#a4aaad"/>
      <stop offset="1" stop-color="#72777b"/>
    </linearGradient>
  </defs>
  <rect width="840" height="840" fill="url(#checker)"/>
  <g stroke="#111" stroke-linecap="round" stroke-linejoin="round">
    <path d="M445 78c-8-45-20-69-42-75 46 11 84 41 113 91 37-39 84-61 141-62-55 16-96 45-123 87 73 30 121 88 128 162 8 88-48 160-130 184 33 74 92 122 178 146-90 27-168 1-230-76-3 83-17 164-41 242-50-47-78-120-84-219-48 30-98 45-149 44 47-42 75-90 85-143-81-26-130-92-124-166 6-81 76-148 170-169 31-7 67-9 108-6z" fill="url(#fur)" stroke-width="7"/>
    <path d="M426 104c-23-46-50-79-82-97 33 58 44 105 33 141" fill="#9ba1a5" stroke-width="7"/>
    <path d="M546 117c31-48 72-78 123-91-45 2-92 22-141 62" fill="#9ba1a5" stroke-width="7"/>
    <path d="M554 131c36-26 70-42 101-46-40 28-68 57-84 87" fill="#ff9caf" stroke-width="5"/>
    <path d="M391 157c-24 8-45 23-64 46 31-14 60-14 87 1" fill="#fff" stroke-width="6"/>
    <path d="M478 147c26 3 51 16 75 39-29-8-58-3-87 15" fill="#fff" stroke-width="6"/>
    <ellipse cx="382" cy="230" rx="42" ry="66" fill="#f4df89" stroke-width="5"/>
    <ellipse cx="508" cy="222" rx="42" ry="68" fill="#f4df89" stroke-width="5"/>
    <ellipse cx="394" cy="239" rx="13" ry="25" fill="#22a546" stroke-width="3"/>
    <ellipse cx="496" cy="230" rx="13" ry="25" fill="#22a546" stroke-width="3"/>
    <path d="M398 305c31 19 70 18 104-4 21 43 8 72-39 88-53-11-75-39-65-84z" fill="#fff" stroke-width="6"/>
    <path d="M431 298c25 11 47 10 68-3" fill="none" stroke-width="5"/>
    <path d="M447 302c20-7 38-6 54 3-9 17-21 27-37 30-13-6-19-17-17-33z" fill="#111" stroke-width="4"/>
    <path d="M526 346c-5 41-23 70-54 88 45 0 76-21 93-63" fill="#f05a79" stroke-width="5"/>
    <path d="M367 345c-42 13-87 30-134 51M363 325c-49 4-94 10-136 20M523 325c50-2 96 3 139 15M526 347c42 10 79 26 112 48" fill="none" stroke-width="3"/>
    <path d="M289 332c-28 16-59 19-93 9 17-13 31-27 41-43 15 11 32 18 52 34z" fill="#fff" stroke-width="7"/>
    <path d="M216 292c-14-52-7-91 21-118 27 27 37 63 31 110" fill="#d98921" stroke-width="5"/>
    <path d="M226 183c-20-21-40-26-59-15 14 8 25 25 32 51" fill="#ff9caf" stroke-width="5"/>
    <path d="M264 172c17-25 37-33 59-23-16 12-26 32-30 60" fill="#ff9caf" stroke-width="5"/>
    <path d="M213 254c20 19 43 21 69 8 18 52 8 95-31 128-52-26-65-72-38-136z" fill="#d98921" stroke-width="5"/>
    <ellipse cx="243" cy="231" rx="7" ry="12" fill="#111" stroke-width="2"/>
    <ellipse cx="276" cy="219" rx="7" ry="12" fill="#111" stroke-width="2"/>
    <path d="M258 247c18-4 34-13 48-29M261 251c13 15 30 21 51 18" fill="none" stroke-width="4"/>
    <path d="M214 302c-27 9-52 6-74-10 22-10 38-25 49-44" fill="#fff" stroke-width="6"/>
  </g>
</svg>
